<svg xmlns="http://www.w3.org/2000/svg" width="600.963" height="126.547" viewBox="0 0 600.963 126.547">
  <g id="Group_238" data-name="Group 238" transform="translate(-93 -54.253)">
    <g id="Group_66" data-name="Group 66" transform="translate(44.794 -122.518)">
      <g id="Group_26" data-name="Group 26" transform="translate(48.206 176.771)">
        <path id="Path_11" data-name="Path 11" d="M65.711,194.174s-.805,4.917,2.015,12.709c0,0,2.819,5.739-1.612,13.119,0,0-.805,7.789,2.014,13.938a201.183,201.183,0,0,1-2.014,21.724s-.4,14.756,1.612,20.5c0,0,.4,9.839-2.82,16.809,0,0-1.209,15.988.4,20.5,0,0-2.013,5.74,8.458,4.1l2.015-1.64,2.416-1.641,3.626-1.228,2.821,1.635h2.816l2.823-.814,3.626.407,5.236,1.641,5.236.819,6.448-1.229,3.625-1.231,10.877-.407,6.043.814,4.431,1.646,4.834,1.64,12.49-.412,4.027-.409,3.224-1.641,4.429-1.231,2.828,1.231,4.83,1.641,3.627-.819,4.027-2.053,4.027,1.641,4.027,1.64h6.448l1.207-3.281v-4.1l-.4-6.149-2.416-6.149-1.21-18.858.4-7.38.808-4.918,1.612-4.918s3.625-16.4.4-25.825l-1.207-3.28s-2.418-18.446.4-22.956l.805-2.051,1.612-2.869-1.21-3.279-1.207-6.15-1.613-1.23-8.056.411-4.027,1.23-6.45.408-4.83.411-4.435,1.641-4.024-.82-4.432-2.869s-3.224-2.869-6.043-.822l-4.032,2.46H142.25l-3.625-1.229-28.2-.82-4.832,1.641-2.822,1.64-3.624-.821-2.417-2.048-2.416-1.231H91.895l-3.629,2.461-2.416,1.64-4.026-2.869-3.626-.411-8.056-.411Z" transform="translate(-63.674 -192.231)" fill="#fff"/>
        <path id="Path_12" data-name="Path 12" d="M125.053,303.318l-4.992-1.694-4.348-1.615-5.887-.793-10.693.4-3.567,1.211-.054.01-6.584,1.254-5.431-.849-.056-.018-5.163-1.618-3.393-.381-2.779.8H68.962l-2.694-1.561-3.182,1.077-2.3,1.561-2.155,1.754-.212.033a22.911,22.911,0,0,1-3.494.3h0c-2.636,0-4.445-.667-5.378-1.983a3.987,3.987,0,0,1-.54-3.184c-1.529-4.895-.414-19.931-.365-20.579l.011-.143.06-.131c2.92-6.316,2.78-15.226,2.751-16.33-1.994-5.887-1.632-20.061-1.616-20.665v-.054l.009-.053a200.312,200.312,0,0,0,2-21.438,27.594,27.594,0,0,1-2.056-9.389,33.151,33.151,0,0,1,.053-4.789l.018-.176.091-.152a15.218,15.218,0,0,0,2.361-8.786,10.392,10.392,0,0,0-.782-3.575l-.019-.039-.014-.039c-2.858-7.9-2.086-12.9-2.052-13.108l.1-.607,5.1-.473,8.162.418,3.831.434,3.743,2.668,1.958-1.329,3.831-2.6h2.854l2.669,1.36,2.339,1.982,3.129.709,2.62-1.522,5.043-1.712,28.462.827,3.614,1.225h3.674l3.815-2.327a4.522,4.522,0,0,1,2.683-.869,7.277,7.277,0,0,1,4.279,1.716l4.26,2.758,3.654.745,4.324-1.6,4.955-.421,6.357-.4,4.032-1.231,8.446-.431,2.085,1.59,1.253,6.384,1.315,3.564-1.765,3.142-.812,2.068-.039.062c-1.051,1.68-1.455,6.19-1.139,12.7.229,4.7.757,8.987.84,9.645l1.182,3.213a29.459,29.459,0,0,1,1.339,8.239,64.165,64.165,0,0,1-.292,8.542,87.949,87.949,0,0,1-1.425,9.473l-.009.039-.012.038-1.593,4.86-.791,4.815-.4,7.289,1.2,18.687,2.415,6.148.414,6.324v4.241l-1.448,3.935h-7.158l-7.862-3.2-3.792,1.933-3.944.89-5.074-1.724-2.6-1.131L145.2,300.8l-3.285,1.672-4.229.428Zm-4.449-3.19,4.686,1.59,12.318-.406,3.852-.391,3.162-1.609,4.778-1.328,3.057,1.33,4.587,1.558,3.311-.747,4.263-2.173,8.247,3.359H178.6l.966-2.627v-3.931l-.394-6-2.416-6.149-.008-.124-1.213-18.905.407-7.47.825-5.021,1.619-4.937a86.916,86.916,0,0,0,1.388-9.262c.645-6.78.31-12.343-.968-16.088l-1.234-3.355-.012-.088c-.006-.046-.612-4.7-.863-9.852a66.42,66.42,0,0,1,.007-7.775,13.688,13.688,0,0,1,1.331-5.788l.8-2.036,1.459-2.6-1.1-2.994-1.161-5.916-1.141-.87-7.667.391-4.022,1.228-6.534.413-4.714.4-4.547,1.682-4.394-.9L140.4,179.76l-.045-.04a5.782,5.782,0,0,0-3.272-1.357,2.926,2.926,0,0,0-1.774.585l-.026.019-4.25,2.593H126.65l-3.637-1.233-27.937-.812-4.622,1.569-3.024,1.757-4.12-.933-2.5-2.114-2.163-1.1H76.67l-3.426,2.324-2.874,1.95-4.309-3.071-3.4-.385-7.974-.407-3.721.345a19.7,19.7,0,0,0,.023,2.716,33.75,33.75,0,0,0,2,8.955,11.926,11.926,0,0,1,.914,4.046,16.787,16.787,0,0,1-2.485,9.628c-.092,1.153-.509,7.971,1.96,13.356l.078.171-.006.188a203.866,203.866,0,0,1-2.015,21.772c-.023.97-.315,14.791,1.568,20.16l.039.112,0,.119a49.325,49.325,0,0,1-.2,5.9,34.873,34.873,0,0,1-2.627,11.147c-.054.748-.3,4.367-.391,8.381-.129,5.867.133,9.894.76,11.646l.1.271-.094.257a2.482,2.482,0,0,0,.264,2.037c.612.851,2.02,1.3,4.072,1.3h0a20.857,20.857,0,0,0,3.036-.253l1.873-1.525,2.534-1.721,4.071-1.378,2.948,1.708h2.49l2.867-.826,3.86.433,5.253,1.646,5.041.788,6.258-1.192,3.682-1.25,11.062-.414.068.009,6.131.825Z" transform="translate(-48.206 -176.771)" fill="#003183"/>
      </g>
      <g id="Group_27" data-name="Group 27" transform="translate(64.789 193.553)">
        <path id="Path_13" data-name="Path 13" d="M402.938,535.478s-.6,3.651,1.511,9.433c0,0,2.118,4.261-1.208,9.74,0,0-.6,5.783,1.513,10.348a148.473,148.473,0,0,1-1.513,16.129s-.3,10.957,1.208,15.218c0,0,.3,7.305-2.114,12.481,0,0-.907,11.867.3,15.217,0,0-1.513,4.259,6.345,3.044l1.51-1.218,1.813-1.218,2.72-.911,2.113,1.217h2.116l2.114-.61,2.719.3,3.926,1.218,3.929.608,4.836-.912,2.719-.913,8.161-.3,4.53.61,3.322,1.215,3.627,1.218,9.368-.3,3.02-.307,2.415-1.216,3.324-.913,2.118.913,3.625,1.216,2.719-.608,3.022-1.521,3.021,1.218,3.023,1.218h4.832l.906-2.436v-3.043l-.3-4.566-1.813-4.565-.9-14,.3-5.479.6-3.651,1.209-3.653s2.722-12.174.3-19.175l-.906-2.436s-1.816-13.693.3-17.042l.608-1.521,1.207-2.132-.908-2.433-.906-4.566-1.205-.913-6.044.3-3.02.914-4.839.306-3.628.3-3.323,1.218-3.02-.608-3.325-2.132s-2.414-2.13-4.534-.608L463.368,537h-3.021l-2.722-.915-21.147-.608-3.629,1.216-2.114,1.218-2.72-.611-1.813-1.521-1.812-.911h-1.813l-2.719,1.825-1.813,1.218-3.02-2.132-2.72-.3-6.045-.3Z" transform="translate(-401.272 -533.888)" fill="#d7d232"/>
        <path id="Path_14" data-name="Path 14" d="M444.734,613.825l-3.772-1.267-3.247-1.188-4.388-.591-7.992.3-2.666.9-5.01.944-4.108-.635-3.911-1.213-2.5-.28-2.074.6h-2.417l-2-1.15-2.312.775-1.7,1.144L395,613.478l-.2.03a17.527,17.527,0,0,1-2.639.227h0c-2.036,0-3.436-.52-4.16-1.546a3.078,3.078,0,0,1-.426-2.428c-1.14-3.71-.307-14.817-.27-15.3l.01-.134.057-.122c2.159-4.619,2.072-11.132,2.049-12.034-1.5-4.409-1.224-14.924-1.212-15.373v-.05l.008-.049a147.459,147.459,0,0,0,1.5-15.863,23.4,23.4,0,0,1-1.5-10.571l.017-.164.086-.141c3.079-5.074,1.2-8.991,1.178-9.03l-.018-.037-.014-.038c-2.156-5.9-1.572-9.65-1.546-9.806l.093-.561,3.941-.362,6.141.311,2.909.324,2.76,1.949,1.392-.935,2.906-1.95h2.212l2.044,1.029,1.741,1.461,2.265.509,1.929-1.112,3.823-1.281,21.388.615,2.712.911h2.7l2.82-1.706a3.558,3.558,0,0,1,2.091-.669,5.616,5.616,0,0,1,3.287,1.3l3.167,2.031,2.68.539,3.221-1.181,3.741-.311,4.754-.3,3.024-.915,6.4-.321,1.642,1.243.949,4.782,1.008,2.7-1.352,2.387-.614,1.538-.036.057c-1.606,2.543-.7,12.669-.2,16.47l.883,2.374c1.037,3,1.3,7.217.791,12.524a63.584,63.584,0,0,1-1.073,7.052l-.008.036-.012.035-1.191,3.6-.587,3.555-.3,5.4.894,13.84,1.813,4.564.312,4.73v3.176l-1.131,3.04h-5.487l-5.867-2.365-2.806,1.412-3.008.672-3.849-1.291-1.908-.823-3,.825-2.471,1.244-3.206.324Zm-3.275-2.654,3.493,1.173,9.211-.3,2.859-.291,2.359-1.187,3.644-1,2.327,1,3.4,1.141,2.43-.543,3.238-1.63,6.22,2.507h4.178l.682-1.832v-2.886l-.293-4.426-1.813-4.565-.915-14.16,0-.044.3-5.519.619-3.747,1.215-3.671c.155-.717,2.576-12.188.323-18.731l-.932-2.506-.011-.082c0-.034-.46-3.5-.649-7.326-.26-5.258.073-8.578,1.017-10.145l.6-1.509,1.063-1.876-.809-2.167-.864-4.35-.768-.582-5.686.285-3.015.912-4.917.311-3.521.293-3.424,1.256-3.359-.676-3.489-2.237-.042-.037a4.2,4.2,0,0,0-2.361-.972,2.088,2.088,0,0,0-1.256.41l-.048.032-3.2,1.933h-3.347l-2.732-.918-20.906-.6-3.435,1.151-2.3,1.325-3.175-.713-1.884-1.581-1.579-.794h-1.414l-2.533,1.7-2.233,1.5-3.279-2.315-2.51-.279-5.97-.3-2.661.244a21.935,21.935,0,0,0,1.514,8.472,8.969,8.969,0,0,1,.7,3.052,12.494,12.494,0,0,1-1.867,7.205c-.073.937-.352,5.891,1.462,9.806l.074.159-.006.176a150.672,150.672,0,0,1-1.514,16.173c-.019.8-.23,10.961,1.167,14.9l.037.1,0,.111c.013.3.28,7.433-2.126,12.7-.25,3.362-.665,12.188.272,14.779l.092.255-.09.238a1.672,1.672,0,0,0,.173,1.369c.43.6,1.45.913,2.95.913h0a15.627,15.627,0,0,0,2.219-.18l1.379-1.113,1.922-1.291,3.129-1.048,2.23,1.285h1.814l2.155-.622,2.934.328,3.941,1.222,3.751.58,4.662-.879,2.772-.931.106,0,8.225-.306,4.672.629Z" transform="translate(-386.977 -519.58)" fill="#d0d600"/>
      </g>
      <path id="Path_15" data-name="Path 15" d="M1980.187,352.947l-1.1,1.967a3.482,3.482,0,0,1-1.593-.58s-.519-.26-1.328.694c0,0-.579,1.415,1.215,1.56a8.6,8.6,0,0,0,3.67-.9s.752,2.543-2.024,4.711l-4.451,3.063s.231-.085.115-1.358c0,0-.634-2.168,1.1-2.863l-1.5-1.1a6.017,6.017,0,0,1,2.023-5.694s1.5-1.59,2.748-.378Z" transform="translate(-1831.687 -166.293)" fill="#003183"/>
      <g id="Group_28" data-name="Group 28" transform="translate(52.511 241.431)">
        <path id="Path_16" data-name="Path 16" d="M215.255,1552.184s-20.708,13.224-43.634-13.889c0,0-17.535-25.4-31.432-22.831,0,0,33.424-8.95,47.56,9.038Z" transform="translate(-139.991 -1512.473)" fill="#55a638"/>
        <path id="Path_17" data-name="Path 17" d="M198.495,1541.335a32.446,32.446,0,0,1-14.367-3.488c-5.876-2.886-11.571-7.561-16.928-13.9l-.024-.029-.021-.031a97.461,97.461,0,0,0-9.563-11.421,54.631,54.631,0,0,0-9.332-7.793c-3.621-2.3-6.943-3.471-9.876-3.471a10.447,10.447,0,0,0-1.893.17l-.337-1.489a80.942,80.942,0,0,1,18.6-2.253,51.283,51.283,0,0,1,15.961,2.289,28.351,28.351,0,0,1,13.766,9.232l28.143,28.323-.8.51a19.739,19.739,0,0,1-3.662,1.688A28.9,28.9,0,0,1,198.495,1541.335Zm-30.106-18.343c11.762,13.9,22.863,16.816,30.106,16.816a27.375,27.375,0,0,0,9.105-1.55,22.142,22.142,0,0,0,2.562-1.091l-26.824-27-.027-.035c-7.127-9.069-19.462-10.973-28.554-10.973a79.4,79.4,0,0,0-12.543,1.054,25.222,25.222,0,0,1,6.875,3.178,56.176,56.176,0,0,1,9.607,8.02A99.344,99.344,0,0,1,168.389,1522.991Z" transform="translate(-136.153 -1497.636)" fill="#fff"/>
      </g>
      <path id="Path_18" data-name="Path 18" d="M1560.891,1141.6s-2.472.237-2.8-2.041c0,0-.19-3.326,3.8-4.465,0,0,2.758-1,6.083,3.656,0,0,1.186,1.521.759,2.85Z" transform="translate(-1435.966 -911.32)" fill="#fff"/>
      <g id="Group_29" data-name="Group 29" transform="translate(131.815 263.788)">
        <path id="Path_19" data-name="Path 19" d="M1766.958,1966.551l.649,3.26s6.128-7.3,10.955.128c0,0,1.171,4.043-7.432,4.954,0,0-7.821,2.217-5.865,9,0,0,1.171,5.865,9.385,4.043a6.99,6.99,0,0,0,4.169-3s1.957,6,8.741,1.957l.254-1.04s-3.385.652-2.472-4.822l-.134-10.954s0-6.128-7.3-6.78A13.022,13.022,0,0,0,1766.958,1966.551Z" transform="translate(-1764.521 -1962.69)" fill="#003183"/>
        <path id="Path_20" data-name="Path 20" d="M1774.952,1980.369a4.873,4.873,0,0,1-3.845-1.833,6.336,6.336,0,0,1-.712-1.063,7.672,7.672,0,0,1-4,2.531,14.144,14.144,0,0,1-3.042.362,6.953,6.953,0,0,1-5.635-2.352,5.964,5.964,0,0,1-1.221-2.367,6.714,6.714,0,0,1,.464-5.28c1.706-3.073,5.539-4.189,5.7-4.235l.035-.01.037,0c4.3-.456,5.989-1.695,6.647-2.654a2.31,2.31,0,0,0,.429-1.7c-1.344-2.041-2.905-3.076-4.64-3.076-2.978,0-5.558,3.022-5.583,3.053l-.576.683-.869-4.365.168-.163a12.252,12.252,0,0,1,4.875-2.906,14.1,14.1,0,0,1,4.272-.647,12.032,12.032,0,0,1,2.161.175c3.942.359,5.821,2.29,6.7,3.849a7.469,7.469,0,0,1,.969,3.354l.134,10.99-.006.038c-.3,1.786-.148,3.093.432,3.779a1.649,1.649,0,0,0,1.294.567,1.568,1.568,0,0,0,.243-.017l.658-.127-.162.651-.3,1.215-.155.092A8.95,8.95,0,0,1,1774.952,1980.369Zm-4.384-4.858.306.938a5.34,5.34,0,0,0,.912,1.559,3.984,3.984,0,0,0,3.166,1.5,7.963,7.963,0,0,0,3.881-1.249l.077-.317a2.481,2.481,0,0,1-1.72-.862c-.755-.892-.968-2.385-.631-4.437l-.134-10.921a6.709,6.709,0,0,0-.875-2.966c-1.142-1.991-3.172-3.13-6.035-3.386l-.025,0-.024-.005a11.135,11.135,0,0,0-2.013-.163,12.091,12.091,0,0,0-8.38,3.15l.44,2.213c1-.973,3.151-2.738,5.653-2.738,2.063,0,3.88,1.188,5.4,3.531l.035.053.018.061a3.09,3.09,0,0,1-.514,2.448c-1.091,1.624-3.529,2.649-7.245,3.049-.364.112-3.7,1.2-5.154,3.82a5.893,5.893,0,0,0-.383,4.635l.009.035a5.147,5.147,0,0,0,1.068,2.037,6.143,6.143,0,0,0,4.949,2.012,13.274,13.274,0,0,0,2.853-.341,6.6,6.6,0,0,0,3.886-2.791Z" transform="translate(-1756.167 -1954.342)" fill="#fff"/>
      </g>
      <g id="Group_30" data-name="Group 30" transform="translate(140.24 276.611)">
        <path id="Path_21" data-name="Path 21" d="M1942.083,2226.418s-6.167.914-4.849,6.172c0,0,1.514,3.942,4.648.1,0,0,.2.2.3-2.729Z" transform="translate(-1936.619 -2225.922)" fill="#d0d600"/>
        <path id="Path_22" data-name="Path 22" d="M1930.962,2225.166c-1.676,0-2.454-1.973-2.486-2.057l-.01-.024-.006-.025a4.849,4.849,0,0,1,.543-4.022c1.458-2.182,4.53-2.66,4.66-2.679l.479-.071.118,4.037v.014a22.205,22.205,0,0,1-.172,2.385,1.01,1.01,0,0,1-.3.69A3.961,3.961,0,0,1,1930.962,2225.166Zm-1.675-2.344c.076.181.661,1.485,1.675,1.485.646,0,1.417-.528,2.23-1.526l.011-.014a15.048,15.048,0,0,0,.2-2.445l-.088-3.012a6.215,6.215,0,0,0-3.6,2.209A4.016,4.016,0,0,0,1929.286,2222.821Z" transform="translate(-1928.262 -2216.287)" fill="#fff"/>
      </g>
      <g id="Group_31" data-name="Group 31" transform="translate(90.853 264.877)">
        <path id="Path_23" data-name="Path 23" d="M932.1,1985.647l6.909-.134,7.043,16.95,5.216-16.95,5.345.134,5.212,16.685,4.824-16.819h3.914l-8.216,23.6-5.606.522-4.559-16.556-5.089,16.427-5.737.129Z" transform="translate(-931.477 -1985.075)" fill="#003183"/>
        <path id="Path_24" data-name="Path 24" d="M944.341,2001.588l-4.264-15.487-4.746,15.32-6.348.142-9.586-24.838,7.815-.152,6.7,16.12,4.961-16.123,5.979.15,4.876,15.61,4.518-15.751h4.842l-8.506,24.428Zm-23.7-24.028,8.927,23.13,5.126-.115,5.432-17.536,4.853,17.626,4.972-.463,7.926-22.764h-2.985l-5.131,17.887-5.547-17.761-4.712-.118-5.47,17.777-7.388-17.78Z" transform="translate(-919.397 -1976.57)" fill="#fff"/>
      </g>
      <g id="Group_32" data-name="Group 32" transform="translate(158.177 246.469)">
        <path id="Path_25" data-name="Path 25" d="M2303.465,1609.892v41.893h6.45V1610.3Z" transform="translate(-2303.035 -1609.434)" fill="#003183"/>
        <path id="Path_26" data-name="Path 26" d="M2302,1643.326h-7.309v-42.781L2302,1601Zm-6.45-.859h5.59v-40.656l-5.59-.351Z" transform="translate(-2294.687 -1600.545)" fill="#fff"/>
      </g>
      <g id="Group_33" data-name="Group 33" transform="translate(104.627 211.955)">
        <path id="Path_27" data-name="Path 27" d="M1215.629,939.461s12.891-28.843,46.877-28.58c0,0,17.9-4.3,20.344-10.661,0,0-3.97,31.139-34,45.462C1248.846,945.682,1223.6,952.457,1215.629,939.461Z" transform="translate(-1214.902 -899.989)" fill="#55a638"/>
        <path id="Path_28" data-name="Path 28" d="M1220.643,943.607a33.268,33.268,0,0,1-11.018-1.644,16.045,16.045,0,0,1-8.67-6.65l-.178-.29.139-.31a37.952,37.952,0,0,1,2.568-4.552,56.6,56.6,0,0,1,8.166-9.94,51.475,51.475,0,0,1,14.561-9.949,52.329,52.329,0,0,1,21.71-4.523h.385a80.352,80.352,0,0,0,9.11-2.907c6.075-2.378,9.777-4.917,10.707-7.34l1.241.312a43.162,43.162,0,0,1-1.106,5.174,67.849,67.849,0,0,1-4.695,12.39,63.493,63.493,0,0,1-10.387,15.109A60.022,60.022,0,0,1,1235,941.779l-.053.025-.057.015A62.3,62.3,0,0,1,1220.643,943.607Zm-18.4-8.675c3.183,4.9,9.373,7.386,18.4,7.386a60.981,60.981,0,0,0,13.856-1.729,59.994,59.994,0,0,0,27.909-27.781,65.215,65.215,0,0,0,5.124-14.262c-1.924,1.9-5.155,3.74-9.659,5.5a81.4,81.4,0,0,1-9.342,2.973l-.077.018h-.079l-.456,0a49.9,49.9,0,0,0-35.375,14.11A52.349,52.349,0,0,0,1202.239,934.932Z" transform="translate(-1200.777 -895.504)" fill="#fff"/>
      </g>
      <path id="Path_29" data-name="Path 29" d="M1284.383,922.112s-8.36,6.967-7.667,20.728c0,0-1.215,6.97,8.365,8.015h5.227s-2.788,7.661-17.421,11.319l-4.533,1.568s7.843,3.311,13.243,3.659a16.271,16.271,0,0,0,14.808-4.179s6.272-6.445,5.227-20.555c0,0-.876-13.24-7.838-18.813C1293.795,923.855,1289.263,920.2,1284.383,922.112Z" transform="translate(-1160.419 -708.327)" fill="#fff"/>
      <path id="Path_30" data-name="Path 30" d="M1403.211,945.742s-8.449,10.114-4.849,21.615c0,0,.142,3.186,7.345,3.325h6.379s-2.911,8.868-18.988,14.546c0,0,13.025,5.131,17.876,0,0,0,6.932-3.876,7.622-19.253,0,0,.275-11.5-7.069-19.262C1411.527,946.713,1406.816,942.139,1403.211,945.742Z" transform="translate(-1279.056 -730.012)" fill="#003183"/>
      <g id="Group_34" data-name="Group 34" transform="translate(123.409 224.734)">
        <path id="Path_31" data-name="Path 31" d="M1598.6,1172.85s-1.661-.048-.618-1.66c0,0,1.614-2.331,3.044-1.143a12.453,12.453,0,0,1,3.088,2.8Z" transform="translate(-1596.995 -1169.065)" fill="#008c41"/>
        <path id="Path_32" data-name="Path 32" d="M1592.7,1160.974h-6.663a1.746,1.746,0,0,1-1.442-.789,1.818,1.818,0,0,1,.3-1.866l.011-.017c.125-.18,1.259-1.758,2.7-1.758a1.973,1.973,0,0,1,1.261.462,12.666,12.666,0,0,1,3.26,2.995Zm-6.633-1.289h4.118a16.247,16.247,0,0,0-2.057-1.619l-.031-.02-.028-.024a.711.711,0,0,0-.467-.188c-.6,0-1.353.8-1.63,1.195a1.1,1.1,0,0,0-.235.558A.745.745,0,0,0,1586.072,1159.685Z" transform="translate(-1584.452 -1156.544)" fill="#fff"/>
      </g>
      <path id="Path_33" data-name="Path 33" d="M1978.559,492.072,1968.3,503.623l1.3,27.437s-.432,7.653,8.956,12.7Z" transform="translate(-1826.104 -299.866)" fill="#fefefe"/>
      <path id="Path_34" data-name="Path 34" d="M2012.8,585.8l-6.547,7.565,1.129,26.183s0,7.225,5.644,9.936Z" transform="translate(-1862.199 -389.009)" fill="#003183"/>
      <path id="Path_35" data-name="Path 35" d="M1210.859,498.782l-10.1,10.626,1.568,29.437s-.873,5.922,8.886,11.325Z" transform="translate(-1096.13 -306.248)" fill="#fff"/>
      <path id="Path_36" data-name="Path 36" d="M1252.26,582.016l-6.375,8.036.693,21.895s-.279,12.055,5.961,13.991Z" transform="translate(-1139.05 -385.407)" fill="#003183"/>
      <path id="Path_37" data-name="Path 37" d="M551.028,290.481l-7.4,8.7,3.63,36.1-9.14.577s-7.244,0-7.391-4.637c0,0-.724-2.176-.146-3.191l1.6-6.523-2.174-1.74s-4.205,3.914-5.8,11.6c0,0-2.031,7.828,2.031,14.207,0,0,1.3,3.335,7.976,3.914l21.742.144s.147-11.6-.29-18.265c0-.436-3.044-39.576-3.044-39.576l-.578-1.884Z" transform="translate(-452.216 -107.591)" fill="#fff"/>
      <path id="Path_38" data-name="Path 38" d="M562.167,373.087s-6.649,8.453-4.434,19.259a9.7,9.7,0,0,0,8.313,7.206l20.233.136s.277-13.16-.14-18.289c0,0-2.911-35.055-3.049-37.132l-5.956,6.65,3.463,37.689H568.82s-5.127.138-6.928-3.744a7.8,7.8,0,0,1-.28-6.509l.971-3.742.279-1.107Z" transform="translate(-484.155 -159.297)" fill="#003183"/>
      <g id="Group_35" data-name="Group 35" transform="translate(61.524 254.292)">
        <path id="Path_39" data-name="Path 39" d="M347,1769.373l-13.736,34.184h4.908l3.432-10.142H352.73L357.8,1808.3h8.829l-15.7-38.762Z" transform="translate(-332.632 -1768.931)" fill="#003183"/>
        <path id="Path_40" data-name="Path 40" d="M354.919,1800.143h-9.774l-5.075-14.883H329.563l-3.432,10.142H320.28l14.087-35.056,4.509.187Zm-9.159-.859h7.884l-15.356-37.915-3.349-.139-13.386,33.313h3.964l3.432-10.142h11.738Z" transform="translate(-320.28 -1760.346)" fill="#fff"/>
      </g>
      <g id="Group_36" data-name="Group 36" transform="translate(71.834 260.313)">
        <path id="Path_41" data-name="Path 41" d="M546.553,1912l1.058-2.6,3.86,12.442h-8.292Z" transform="translate(-542.577 -1908.117)" fill="#d0d600"/>
        <path id="Path_42" data-name="Path 42" d="M540.365,1897.49h-9.477l3.578-10.43,1.51-3.717Zm-8.274-.859H539.2l-3.331-10.737-.6,1.479Z" transform="translate(-530.888 -1883.343)" fill="#fff"/>
      </g>
    </g>
    <g id="Group_67" data-name="Group 67" transform="translate(-4152 305.223)">
      <path id="Path_43" data-name="Path 43" d="M-370.422,965.642a2.734,2.734,0,0,1-2.8-2.62,2.733,2.733,0,0,1,2.8-2.753,2.756,2.756,0,0,1,2.84,2.656,2.8,2.8,0,0,1-2.84,2.717" transform="translate(4793.315 -1161.372)" fill="#2a3a90"/>
      <path id="Path_44" data-name="Path 44" d="M-350.755,969.948c-2.892,0-6.083-2.385-7.769-3.9-3.155,2.674-7.511,3.772-7.511,8.043,0,2.409,1.419,4.354,2.845,6.633v.209h-.094c-1.859-1.814-4.834-4.432-4.834-8.106,0-6.211,6.842-6.808,8.166-7.958,2.315-1.985,3.947-7.609,6.22-7.609,1.376,0,4.574,4.154,4.574,10.656,0,1.4-.494,2.037-1.6,2.037m-3.294-9.4c-1.058,0-.927.09-1.857,1.316l-.932,1.785v.245c1.415,1.484,3.548,3.083,5.728,3.083.213,0,.213-.3.213-.5,0-1.149-2.306-5.93-3.152-5.93" transform="translate(4799.669 -1165.126)" fill="#2a3a90"/>
      <path id="Path_45" data-name="Path 45" d="M-355.058,965.642a2.734,2.734,0,0,1-2.8-2.62,2.732,2.732,0,0,1,2.8-2.753,2.753,2.753,0,0,1,2.84,2.656,2.8,2.8,0,0,1-2.84,2.717" transform="translate(4812.449 -1161.372)" fill="#2a3a90"/>
      <path id="Path_46" data-name="Path 46" d="M-333.8,967.91c0-6.5-3.191-10.654-4.574-10.654-2.257,0-3.9,5.622-6.206,7.607-1.34,1.147-8.182,1.749-8.182,7.955,0,3.671,2.975,6.292,4.843,8.11h.088v-.211c-1.426-2.279-2.838-4.228-2.838-6.633,0-4.273,4.349-5.371,7.508-8.041,1.684,1.516,4.879,3.9,7.762,3.9,1.111,0,1.6-.633,1.6-2.032m-1.72-1.435c0,.2,0,.5-.236.5-2.173,0-4.3-1.6-5.721-3.085v-.245l.93-1.785c.939-1.228.8-1.318,1.857-1.318.849,0,3.17,4.783,3.17,5.93" transform="translate(4818.799 -1165.124)" fill="#2a3a90"/>
      <path id="Path_47" data-name="Path 47" d="M-336.848,962.925a2.758,2.758,0,0,0-2.836-2.656,2.736,2.736,0,0,0-2.811,2.753,2.74,2.74,0,0,0,2.811,2.62,2.8,2.8,0,0,0,2.836-2.717" transform="translate(4831.578 -1161.372)" fill="#2a3a90"/>
      <path id="Path_48" data-name="Path 48" d="M-330.393,977.248c-4.444,0-5.773-.341-5.773-3.168a5.713,5.713,0,0,1,.707-2.495l.139-.036c.31,1.688,0,2.775,4.794,2.775a78.724,78.724,0,0,0,8.615-.6c0-.332-7.594-10.477-7.594-11.193,0-1.024.851-1.826,1.334-2.71C-326.751,961.27-320,969.513-320,975c0,2.214-7.234,2.25-10.391,2.25m1.248-21.228-2.36-2.357,2.623-2.378,2.259,2.459Z" transform="translate(4839.46 -1172.56)" fill="#2a3a90"/>
      <path id="Path_49" data-name="Path 49" d="M-296.19,975.747l-11.339-.047h-8.822c-2.4,0-5.315-1.951-5.315-5.982,0-3.694,3.267-6.572,6.181-8.162l.049.1c-1.491,1.543-3.781,3.934-3.781,6.983,0,3.8,4.138,3.752,12.091,3.8l11.087.052c0-.144.1-.24.1-.379,0-1.221-5.061-8.07-5.061-8.07,0-1.421,1.538-2.34,2.351-3.5,3.074,5.542,4.859,7.874,4.859,13.126,0,1.507-.049,2.084-2.4,2.084m-3.321-18.625-2.755-2.571v-.146l2.712-2.721,2.955,2.616Z" transform="translate(4857.518 -1172.063)" fill="#2a3a90"/>
      <path id="Path_50" data-name="Path 50" d="M-305.047,979.01c0-5.937-1.848-21.448-2.861-27.126l2.647-2.778.155.2a96.692,96.692,0,0,1,1.536,10.351l.817,10.506.157,7.529a25.577,25.577,0,0,1-2.452,1.318" transform="translate(4874.651 -1175.274)" fill="#2a3a90"/>
      <path id="Path_51" data-name="Path 51" d="M-306.433,964.216a18.64,18.64,0,0,1-.1-3.262l9.954-.047a30.088,30.088,0,0,0,0,3.208" transform="translate(4876.333 -1160.579)" fill="#2a3a90"/>
      <path id="Path_52" data-name="Path 52" d="M-288.8,970.736h-14.193a24.009,24.009,0,0,1-.052-3.357l14.435.092c0-.092.061-.231.061-.328,0-1.221-2.647-5.593-4.385-8.368l2.856-3.105c1.578,3.4,3.824,8.791,3.824,12.828,0,1.85-.247,2.239-2.546,2.239m-6.184,9.767-2.652-2.67v-.148l2.757-2.67c1.781,1.792,1.075.918,2.809,2.818-1.79,1.6-.811.822-2.914,2.67" transform="translate(4880.66 -1167.099)" fill="#2a3a90"/>
      <path id="Path_53" data-name="Path 53" d="M-296.256,964.216a17.377,17.377,0,0,1-.11-3.262l9.951-.047c-.047,2.241-.047,1.509,0,3.208" transform="translate(4888.991 -1160.579)" fill="#2a3a90"/>
      <path id="Path_54" data-name="Path 54" d="M-282.072,977.816c-.052,1.271-4.042.728-5.822.728h-4.7c-.1-.768-.146-2.47-.146-3.253h8.063a.672.672,0,0,0,.157-.337c0-6.523-2.555-17.024-3.934-22.606l2.751-3.027a121.538,121.538,0,0,1,2.762,15.082l.918,11.191s0,1.064-.047,2.223" transform="translate(4893.538 -1175.007)" fill="#2a3a90"/>
      <path id="Path_55" data-name="Path 55" d="M-280.485,951.057c-4.383,1.459-3.828,1.075-6.276,3.208a6.583,6.583,0,0,1,.869-2.133v-.249c-1.179-.781-1.693-1.21-1.693-2.719.463-1.715,1.489-4.042,4.042-4.042,1.076,0,1.525.539,1.525,1.361,0,.433-.353.73-.552,1.118a3.344,3.344,0,0,0-1.63-.629c-1.639,0-2.1,1.165-2.506,2.037a10.307,10.307,0,0,0,2.647,1.612,23.914,23.914,0,0,1,4.143-1.511" transform="translate(4899.96 -1180.235)" fill="#2a3a90"/>
      <path id="Path_56" data-name="Path 56" d="M-277.435,978.589c-.705,0-1.426-.1-2.14-.146l.811-2.968c2.966-2.135,5.975-5.542,5.975-6.314,0-.824-10.306-9.588-12.4-11.325a2.981,2.981,0,0,1-.968.422,4.057,4.057,0,0,1-1.742-3.3c0-.923.465-2.526,1.123-2.526,1.334,0,12.668,12.3,14.866,14.783.256-.393.658-2.043.658-5.209a99.215,99.215,0,0,0-.658-10.255l2.863-2.387a60.27,60.27,0,0,1,.5,7.344c0,4.188-.2,8.55-1.884,12.406,1.635,3.444,2.239,4.176,2.239,7.189,0,2.863,0,2.286-9.24,2.286m5.728-7.78a26.915,26.915,0,0,1-4.444,4.329v.142c.865,0,1.834.047,2.7.047,2.914,0,2.914-.148,3.417-.584a8.864,8.864,0,0,0-1.675-3.934" transform="translate(4899.564 -1174.952)" fill="#2a3a90"/>
      <path id="Path_57" data-name="Path 57" d="M-279.533,964.216a18.634,18.634,0,0,1-.1-3.262l9.954-.047c-.043,2.241-.043,1.509,0,3.208" transform="translate(4909.833 -1160.579)" fill="#2a3a90"/>
      <path id="Path_58" data-name="Path 58" d="M-275.911,964.216a18.113,18.113,0,0,1-.106-3.262l9.954-.047a31.347,31.347,0,0,0,0,3.208" transform="translate(4914.334 -1160.579)" fill="#2a3a90"/>
      <path id="Path_59" data-name="Path 59" d="M-261.723,977.816c-.049,1.271-4.035.728-5.82.728h-4.7c-.1-.768-.155-2.47-.155-3.253h8.07a.743.743,0,0,0,.144-.337c0-6.523-2.542-17.024-3.925-22.606l2.757-3.027a123.629,123.629,0,0,1,2.764,15.082l.914,11.191s0,1.064-.054,2.223" transform="translate(4918.879 -1175.007)" fill="#2a3a90"/>
      <path id="Path_60" data-name="Path 60" d="M-241.326,978.508h-16.6c-1.985,0-5.1-1.745-5.1-5.878,0-4.271,4.345-7.1,6.181-8.22l.047.2c-1.781,1.944-3.77,3.936-3.77,7,0,2.865,1.989,3.691,4.848,3.691h12.563l.2-.24c0-6.471-2.7-17.938-3.824-22.748l2.753-2.964c.615,2.577,3.631,15.982,3.631,27.654,0,1.367-.254,1.165-.923,1.507" transform="translate(4930.543 -1174.972)" fill="#2a3a90"/>
      <path id="Path_61" data-name="Path 61" d="M-248.607,979.02c0-10-1.738-20.469-2.953-27.072a25.72,25.72,0,0,1,2.7-2.82l.305.871,1.374,9.823c.561,3.84,1.026,14.2,1.026,17.938-.822.442-1.644.878-2.452,1.26" transform="translate(4944.823 -1175.246)" fill="#2a3a90"/>
      <path id="Path_62" data-name="Path 62" d="M-244.422,982.729c-1.545,0-3.02-.148-4.551-.247v-.139c5.555-2.492,8.577-5.782,12-10.259a5.9,5.9,0,0,0,.811-2.138c0-.3-.056-.586-.056-.876-1.264.052-2.5.1-3.772.1-3.575,0-6.018,0-6.018-3.5,0-4.136,4.176-8.856,6.424-8.856,2.3,0,5.321,4.473,5.321,11.043,0,5.831-5.115,14.873-10.162,14.873m7.6-17.644c-.4-1.37-1.639-4.816-3.575-4.816-1.992,0-3.525,2.434-3.828,4.183.1,1.363.916,1.363,3.316,1.363a28.277,28.277,0,0,0,4.087-.2Z" transform="translate(4948.045 -1165.676)" fill="#2a3a90"/>
      <path id="Path_63" data-name="Path 63" d="M-235.008,951.057c-4.4,1.459-3.833,1.075-6.282,3.208a6.535,6.535,0,0,1,.869-2.133v-.249c-1.172-.781-1.684-1.21-1.684-2.719.458-1.715,1.48-4.042,4.039-4.042,1.064,0,1.52.539,1.52,1.361,0,.433-.353.73-.557,1.118a3.287,3.287,0,0,0-1.626-.629c-1.637,0-2.1,1.165-2.5,2.037a10.023,10.023,0,0,0,2.65,1.612,23.616,23.616,0,0,1,4.127-1.511" transform="translate(4956.597 -1180.235)" fill="#2a3a90"/>
      <path id="Path_64" data-name="Path 64" d="M-238.118,979.02c0-10-1.731-20.469-2.968-27.072a28.691,28.691,0,0,1,2.715-2.82l.3.871,1.381,9.823c.561,3.84,1.026,14.2,1.026,17.938-.82.442-1.637.878-2.456,1.26" transform="translate(4957.867 -1175.246)" fill="#2a3a90"/>
      <path id="Path_65" data-name="Path 65" d="M-226.59,976.677c-3,0-7.032-.781-7.032-3.453,0-4.616,6.175-8.5,8.773-10.208l-.458-1.455,2.659-2.867c1.28,4.134,3.06,11.629,3.06,16.337,0,1.156-3.73,1.646-7,1.646m-2.71-20.325-2.638-2.773v-.085l2.854-2.443,2.766,2.775Zm5.164,8.71c-3.714,2.432-7.45,4.863-7.45,6.031,0,.781,1.022,2.182,4.944,2.182a18.081,18.081,0,0,0,4.814-.777c-.99-3.79-1.439-5.685-2.308-7.437m1.183-8.654-2.555-2.726v-.139l2.908-2.492,2.6,2.73v.1a20.525,20.525,0,0,1-2.957,2.528" transform="translate(4967.163 -1172.852)" fill="#2a3a90"/>
      <path id="Path_66" data-name="Path 66" d="M-227.731,964.216a18.32,18.32,0,0,1-.106-3.262l9.947-.047c-.036,2.241-.036,1.509,0,3.208" transform="translate(4974.337 -1160.579)" fill="#2a3a90"/>
      <path id="Path_67" data-name="Path 67" d="M-224.107,964.216a18.08,18.08,0,0,1-.119-3.262l9.969-.047a26.88,26.88,0,0,0,0,3.208" transform="translate(4978.839 -1160.579)" fill="#2a3a90"/>
      <path id="Path_68" data-name="Path 68" d="M-201.307,979.584H-220.5a18.2,18.2,0,0,1-.112-3.262H-203c-.4-2.391-7.7-8.31-11.938-11.323l-.411.779-.51-.054c-1.275-1.3-2.243-2.084-2.243-3.833,0-3.795,12.614-10.5,17.666-13.326l-.826,3.748a92.334,92.334,0,0,0-13.571,8.894c4.85,3.6,14.494,11.182,14.494,16.681,0,1.7,0,1.554-.97,1.7" transform="translate(4983.342 -1175.947)" fill="#2a3a90"/>
      <path id="Path_69" data-name="Path 69" d="M-207.168,981.462a13.83,13.83,0,0,1-4.491-.24c3.114-2.67,8.88-9.727,8.88-12.886,0-1.886-2.394-4.96-4.188-7.145V961l1.942-3.256a14.74,14.74,0,0,1,3.833,9.275,21.47,21.47,0,0,1-5.977,14.438" transform="translate(4994.514 -1164.51)" fill="#2a3a90"/>
      <path id="Path_70" data-name="Path 70" d="M-200.671,964.679V963.8a24.715,24.715,0,0,1-6.574,4.376v-3.31c4.435-2.528,5.5-3.923,8.368-7.143-.054.622-.157,1.264-.157,1.9,0,4.039,1.271,4.466,2.407,5.342a16.008,16.008,0,0,1,0,3.112c-1.583-.045-4.044-.144-4.044-3.4" transform="translate(5000.011 -1164.54)" fill="#2a3a90"/>
      <path id="Path_71" data-name="Path 71" d="M-202.517,964.216a18.7,18.7,0,0,1-.1-3.262l9.958-.047c-.052,2.241-.052,1.509,0,3.208" transform="translate(5005.742 -1160.579)" fill="#2a3a90"/>
      <path id="Path_72" data-name="Path 72" d="M-189.044,964.115c-.043-1.7-.043-.968,0-3.208l-9.963.047a19.424,19.424,0,0,0,.1,3.262" transform="translate(5010.243 -1160.579)" fill="#2a3a90"/>
      <path id="Path_73" data-name="Path 73" d="M-194.068,960.415l-2.654-2.519v-.252l2.654-2.582c1.031.885,1.944,1.8,2.914,2.73-1.484,1.448-1.989,2.145-2.914,2.623m16.6,16.337a12.383,12.383,0,0,1-3.685.874c-4.54,0-5.811-2.423-6.981-4.075-2.1,2.566-2.816,3.3-5.366,3.689v-3.31c3.361-1.067,3.979-3.554,5.1-7.289l.209.148c.5,2.569,1.783,7.526,7.4,7.526.714,0,1.581-.29,1.581-.963,0-.828-2.647-5.943-3.613-7.773L-180.38,963c.667.624,3.168,7.681,3.168,12.053a6.2,6.2,0,0,1-.256,1.7M-190.383,956l-2.863-2.728,2.959-2.825,2.813,2.778Zm3.521,4.316-2.867-2.721,2.867-2.825,2.962,2.773Z" transform="translate(5013.115 -1173.603)" fill="#2a3a90"/>
      <path id="Path_74" data-name="Path 74" d="M-369.452,988.375l-1.983,5.4c-.795,2.142-1.062,3.256.763,3.94v.11H-377.7v-.11c2.214-1.116,2.87-3.253,3.7-5.429l6.377-15.962c.534-1.381,1.262-2.986-.566-3.559v-.112h6.02l7.946,19.633c.882,2.176,1.567,4.313,3.741,5.429v.11h-7.818v-.11c1.868-.84,1.565-1.262.53-3.94l-2.061-5.4m-4.854-12.48-3.772,9.642h7.517Z" transform="translate(4787.737 -1145.955)" fill="#2a3a90"/>
      <path id="Path_75" data-name="Path 75" d="M-365.536,976.307c1.228,0,2.6.191,3.518-.51h.112a6.8,6.8,0,0,0,.5,1.987l4.468,11.638,3.469-8.993c.539-1.374,1.491-3.215-.337-4.017v-.106h5v.564a7.985,7.985,0,0,0,.534,1.758l3.934,10.793,3.548-8.993c.5-1.3,1.536-3.056-.539-4.017v-.106h5.119l-7.605,18.284c-2.582-1.374-2.894-2.023-3.846-4.556l-3.285-8.8-5.236,13.351c-2.71-1.412-3.087-1.866-4.118-4.556l-4.2-10.749a5.079,5.079,0,0,0-2.03-2.874v-.106" transform="translate(4801.651 -1142.034)" fill="#2a3a90"/>
      <path id="Path_76" data-name="Path 76" d="M-336.356,994.4c-2.5-.15-5.039-.918-5.039-3.974v-6.047a16.811,16.811,0,0,1-3.662,1.183c-1.826.425-3.889.842-3.889,3.173,0,2.382,2.135,3.137,4.156,3.137a9.656,9.656,0,0,0,2.746-.532l-2.254,2.874a11.738,11.738,0,0,1-1.985.186c-3.839,0-6.518-2.447-6.518-5.618,0-7.122,11.406-3.833,11.406-8,0-1.844-2.25-2.452-3.662-2.452a11.9,11.9,0,0,0-5.191,1.529l2.562-3.831,2.481-.231c4.125,0,7.248,1.192,7.288,5.82v5.748c0,3.02.074,4.167,3.245,4.507" transform="translate(4818.744 -1142.034)" fill="#2a3a90"/>
      <path id="Path_77" data-name="Path 77" d="M-342.024,972.985a3.152,3.152,0,0,0,2.438-.608h.121v21.528c0,1.767-.274,3.184,1.408,4.143v.11h-6.291v-.11c1.632-.959,1.4-2.375,1.4-4.143V977.236c0-1.765.229-3.182-1.4-4.138v-.112" transform="translate(4829.271 -1146.293)" fill="#2a3a90"/>
      <path id="Path_78" data-name="Path 78" d="M-333.765,977.894c0-1.769.267-4.562-1.677-5.133v-.112h9.354c8.7,0,14.132,4.747,14.132,12.37,0,7.526-5.768,12.8-14.325,12.8h-9.161v-.112c1.915-1.307,1.677-3.135,1.677-5.4m3.9,2.49a13.583,13.583,0,0,0,2.78.274c5.685,0,10.769-2.984,10.769-9.612,0-6.7-3.741-10.059-10.115-10.059a14.943,14.943,0,0,0-3.433.422Z" transform="translate(4840.362 -1145.955)" fill="#2a3a90"/>
      <path id="Path_79" data-name="Path 79" d="M-307.786,994.4c-2.519-.15-5.039-.918-5.039-3.974v-6.047a16.888,16.888,0,0,1-3.667,1.183c-1.832.425-3.893.842-3.893,3.173,0,2.382,2.14,3.137,4.17,3.137a9.763,9.763,0,0,0,2.742-.532l-2.257,2.874a11.76,11.76,0,0,1-1.985.186c-3.853,0-6.521-2.447-6.521-5.618,0-7.122,11.411-3.833,11.411-8,0-1.844-2.259-2.452-3.667-2.452a11.874,11.874,0,0,0-5.193,1.529l2.562-3.831,2.479-.231c4.12,0,7.257,1.192,7.3,5.82v5.748c0,3.02.076,4.167,3.24,4.507" transform="translate(4854.318 -1142.034)" fill="#2a3a90"/>
      <path id="Path_80" data-name="Path 80" d="M-313.44,979.948a3.647,3.647,0,0,0,2.474-.62h.123V993.29c0,1.767-.231,3.184,1.451,4.145v.106h-6.377v-.106c1.684-.961,1.451-2.378,1.451-4.145v-9.134c0-1.767.234-3.141-1.451-4.1v-.106m3.054-2.3a2.463,2.463,0,0,1-2.486-2.522,2.384,2.384,0,0,1,2.486-2.252,2.33,2.33,0,0,1,2.29,2.362,2.373,2.373,0,0,1-2.29,2.412" transform="translate(4864.862 -1145.676)" fill="#2a3a90"/>
      <path id="Path_81" data-name="Path 81" d="M-309.137,976.307a3.656,3.656,0,0,0,2.324-.51h.119v2.926a5.1,5.1,0,0,1,4.5-2.926l1.37.126v3.518a2.338,2.338,0,0,0-1.754-.626c-2.9,0-4.118,1.547-4.118,5.481v5.351c0,1.769-.24,3.184,1.448,4.143v.11h-6.374v-.11c1.677-.959,1.453-2.373,1.453-4.143v-9.132c0-1.767.225-3.141-1.412-4.1v-.106" transform="translate(4870.028 -1142.034)" fill="#2a3a90"/>
      <path id="Path_82" data-name="Path 82" d="M-295.616,990.221l-5.613-12.677a2.468,2.468,0,0,0-2.562-1.52h-3.253v.11c1.839.685,2.3,2.021,3.065,3.707l4.652,10.185a7.176,7.176,0,0,0,1.985,3.063l.157.184-.229.622c-.8,2.093-1.951,4.98-4.619,4.98a4.085,4.085,0,0,1-2.138-.93l-3.435,2.492a11.993,11.993,0,0,0,4.538.959c3.584,0,6.264-1.471,8.323-6.4l7.94-18.969h-5.342v.11c1.834.838.954,2.87.391,4.365" transform="translate(4875.027 -1141.752)" fill="#2a3a90"/>
      <path id="Path_83" data-name="Path 83" d="M-272.853,977.736a13.254,13.254,0,0,0-7.066-2.185c-5.279,0-8.932,3.867-8.932,9.41,0,5.638,3.81,10.638,9.7,10.638a16.875,16.875,0,0,0,8.135-2.4h.106l-1.938,4.435a13.541,13.541,0,0,1-5.766,1.152c-9.008,0-14.586-5.061-14.586-13.236,0-7.939,5.577-13.171,13.391-13.171a30.544,30.544,0,0,1,6.961.954" transform="translate(4892.961 -1146.295)" fill="#2a3a90"/>
      <path id="Path_84" data-name="Path 84" d="M-282.951,985.25c0-5.732,4.616-9.453,10.111-9.453a9.16,9.16,0,0,1,6.377,2.274,9.21,9.21,0,0,1,3.132,6.853c0,5.5-4.587,9.475-9.967,9.475-5.232,0-9.653-3.709-9.653-9.15m15.765.463c0-3.7-1.983-7.383-6.074-7.383-3.548,0-5.845,2.793-5.845,6.235,0,3.521,2.1,7.306,6,7.306a5.859,5.859,0,0,0,5.919-6.159" transform="translate(4905.731 -1142.034)" fill="#2a3a90"/>
      <path id="Path_85" data-name="Path 85" d="M-270.974,976.307a4.023,4.023,0,0,0,2.378-.51h.106v3.018A5.776,5.776,0,0,1-263.1,975.8a6.449,6.449,0,0,1,5.946,3.33,7.059,7.059,0,0,1,6.114-3.33c5.414,0,6.828,3.108,6.828,7.964v5.885c0,1.657-.229,3.532,1.684,4.143v.11h-6.608v-.11c1.684-.959,1.455-2.373,1.455-4.143v-4.92c0-3.9-1.221-6.4-4.277-6.4-3.44,0-4.39,2.187-4.39,5.782v5.537c0,1.769-.229,3.184,1.446,4.143v.11h-6.366v-.11c1.664-.959,1.446-2.373,1.446-4.143v-5.268c0-4.017-1.987-6.051-4.354-6.051-2.9,0-4.318,1.794-4.318,5.472v5.847c0,1.769-.234,3.148,1.419,4.143v.11h-6.343v-.11c1.684-.959,1.451-2.373,1.451-4.143v-9.132c0-1.767.234-3.141-1.451-4.1v-.106" transform="translate(4917.606 -1142.034)" fill="#2a3a90"/>
      <path id="Path_86" data-name="Path 86" d="M-256.175,976.307a3.957,3.957,0,0,0,2.292-.51h.106v2.721c1.3-1.792,4.131-2.721,6.271-2.721,5.317,0,8.743,4.111,8.743,9.125a9.134,9.134,0,0,1-9.2,9.478,7.633,7.633,0,0,1-2.825-.5l-2.066-3.13a9.61,9.61,0,0,0,4.167,1.1c4.051,0,6.071-2.71,6.071-6.536,0-3.557-1.913-6.85-5.845-6.85a5.686,5.686,0,0,0-4.241,1.841c-1.1,1.181-1.076,2.562-1.076,4.1v13.113c0,1.765-.222,3.143,1.466,4.1v.124h-6.377v-.124c1.673-.952,1.444-2.331,1.444-4.1V980.515c0-1.767.229-3.186-1.444-4.1v-.106" transform="translate(4935.947 -1142.034)" fill="#2a3a90"/>
      <path id="Path_87" data-name="Path 87" d="M-232.621,994.4c-2.526-.15-5.043-.918-5.043-3.974v-6.047a17.009,17.009,0,0,1-3.671,1.183c-1.828.425-3.893.842-3.893,3.173,0,2.382,2.14,3.137,4.17,3.137a9.823,9.823,0,0,0,2.746-.532l-2.254,2.874a11.816,11.816,0,0,1-1.992.186c-3.849,0-6.525-2.447-6.525-5.618,0-7.122,11.42-3.833,11.42-8,0-1.844-2.25-2.452-3.671-2.452a11.873,11.873,0,0,0-5.189,1.529l2.557-3.831,2.486-.231c4.113,0,7.255,1.192,7.282,5.82v5.748c0,3.02.083,4.167,3.249,4.507" transform="translate(4947.907 -1142.034)" fill="#2a3a90"/>
      <path id="Path_88" data-name="Path 88" d="M-238.454,976.307a5.015,5.015,0,0,0,2.566-.51h.106v2.95a6.251,6.251,0,0,1,5.391-2.95,7.114,7.114,0,0,1,5.8,2.638c1.071,1.531.959,3.909.959,5.71V989.7c0,1.762-.231,3.135,1.448,4.093v.11h-6.379v-.11c1.684-.959,1.446-2.373,1.446-4.093v-5.164c0-4.1-1.134-6.2-4.61-6.2s-4.053,2.34-4.053,4.594V989.7c0,1.762-.227,3.135,1.453,4.093v.11h-6.37v-.11c1.684-.959,1.451-2.373,1.451-4.143v-9.1c0-1.758.234-3.173-1.451-4.134v-.106" transform="translate(4958.349 -1142.034)" fill="#2a3a90"/>
      <path id="Path_89" data-name="Path 89" d="M-216.94,980.5c.561-1.493,1.448-3.525-.391-4.367v-.106h5.342l-7.933,18.967c-2.066,4.935-4.74,6.4-8.337,6.4a12.073,12.073,0,0,1-4.536-.959l3.435-2.49a4.123,4.123,0,0,0,2.14.93c2.667,0,3.819-2.888,4.614-4.982l.24-.62-.162-.184a7.2,7.2,0,0,1-1.987-3.062l-4.65-10.187c-.761-1.684-1.217-3.02-3.063-3.709v-.106h3.251a2.464,2.464,0,0,1,2.56,1.525l5.611,12.671" transform="translate(4968.193 -1141.752)" fill="#2a3a90"/>
      <path id="Path_90" data-name="Path 90" d="M-208.728,995.618c-2.7-1.967-2.968-1.765-3.945-4.821l-3.5-10.986c-.537-1.63-.981-3.579-2.465-4.583v-.087h4.338a5,5,0,0,0,.35,2.14l4.426,13.849,3.476-11.319c.561-1.816,1.156-3.754-.474-4.583v-.087h4.19a6.029,6.029,0,0,0,.433,3.006l4.138,12.893,3.352-10.9c.539-1.693,1.516-4.1-.806-4.908v-.087h4.578l-6.267,20.478c-2.733-1.871-2.941-1.729-3.918-4.8L-204.1,980.6" transform="translate(4985.819 -1142.853)" fill="#2a3a90"/>
      <path id="Path_91" data-name="Path 91" d="M-204.488,986.077a1.862,1.862,0,0,1-1.864-1.96,1.822,1.822,0,0,1,1.9-1.727,1.839,1.839,0,0,1,1.787,1.814,1.852,1.852,0,0,1-1.819,1.873" transform="translate(5001.123 -1133.824)" fill="#2a3a90"/>
      <path id="Path_92" data-name="Path 92" d="M-194.711,992.577a7.283,7.283,0,0,0,5.261-1.812h.092l-1.549,3.952h-12.208v-.076c1.516-.543,1.338-2.753,1.338-4.082V979.334c0-1.37.177-3.543-1.338-4.109v-.085h5.676v.085c-1.522.566-1.318,2.769-1.318,4.109v12.974" transform="translate(5005.154 -1142.853)" fill="#2a3a90"/>
      <path id="Path_93" data-name="Path 93" d="M-192.09,984.2a1.831,1.831,0,0,0-1.776-1.814,1.836,1.836,0,0,0-1.911,1.727,1.866,1.866,0,0,0,1.877,1.96,1.844,1.844,0,0,0,1.81-1.873" transform="translate(5014.292 -1133.824)" fill="#2a3a90"/>
      <path id="Path_94" data-name="Path 94" d="M-188.173,992.307V979.333c0-1.34-.2-3.539,1.318-4.107v-.085h-5.678v.085c1.511.568,1.336,2.737,1.336,4.107v11.225c0,1.329.175,3.539-1.336,4.082v.076h12.2l1.545-3.952h-.088a7.286,7.286,0,0,1-5.268,1.812" transform="translate(5018.332 -1142.851)" fill="#2a3a90"/>
      <path id="Path_95" data-name="Path 95" d="M-183.32,986.077a1.863,1.863,0,0,1-1.875-1.96,1.83,1.83,0,0,1,1.9-1.727,1.848,1.848,0,0,1,1.792,1.814,1.858,1.858,0,0,1-1.812,1.873" transform="translate(5027.471 -1133.824)" fill="#2a3a90"/>
    </g>
  </g>
</svg>